<?xml version="1.0" standalone="no"?>
<!DOCTYPE svg PUBLIC "-//W3C//DTD SVG 20010904//EN"
 "http://www.w3.org/TR/2001/REC-SVG-20010904/DTD/svg10.dtd">
<svg version="1.0" xmlns="http://www.w3.org/2000/svg"
 width="2800.000000pt" height="2800.000000pt" viewBox="0 0 2800.000000 2800.000000"
 preserveAspectRatio="xMidYMid meet">
<metadata>
Created by potrace 1.14, written by Peter Selinger 2001-2017
</metadata>
<g transform="translate(0.000000,2800.000000) scale(0.100000,-0.100000)"
fill="#000000" stroke="none">
<path d="M8725 27985 c-138 -26 -254 -65 -420 -140 -38 -17 -72 -32 -75 -32
-5 -1 -118 -64 -150 -83 -8 -6 -33 -19 -55 -31 -110 -59 -549 -365 -691 -482
-11 -9 -50 -42 -89 -73 -116 -93 -292 -242 -395 -333 -431 -381 -982 -921
-1515 -1485 -71 -76 -132 -141 -135 -145 -6 -10 -47 -20 -108 -27 -156 -18
-408 -94 -579 -174 -299 -141 -510 -309 -829 -661 -241 -266 -492 -610 -711
-974 -98 -164 -320 -588 -378 -725 -10 -25 -36 -85 -57 -135 -35 -80 -126
-314 -164 -420 -30 -85 -152 -460 -159 -491 -2 -10 -25 -95 -49 -189 -40 -147
-106 -427 -120 -505 -2 -14 -13 -74 -25 -135 -22 -117 -24 -131 -41 -240 -6
-38 -13 -81 -15 -95 -4 -25 -11 -76 -21 -155 -8 -63 -13 -72 -46 -86 -41 -17
-297 -182 -368 -238 -30 -23 -71 -55 -90 -69 -93 -72 -198 -167 -327 -299
-343 -348 -599 -759 -793 -1267 -37 -98 -123 -366 -134 -418 -3 -12 -12 -48
-20 -78 -8 -30 -17 -66 -20 -80 -3 -14 -14 -65 -24 -115 -11 -49 -23 -108 -26
-130 -3 -22 -13 -76 -21 -120 -8 -44 -17 -107 -21 -140 -3 -33 -8 -68 -10 -79
-2 -10 -6 -51 -10 -90 -3 -39 -7 -81 -9 -94 -27 -169 -27 -1057 0 -1256 2 -17
6 -65 10 -106 3 -41 8 -93 10 -115 10 -93 17 -158 20 -179 2 -11 6 -43 10 -71
5 -43 22 -163 41 -295 7 -55 13 -88 30 -180 9 -47 18 -98 21 -115 10 -68 75
-381 108 -525 44 -191 39 -169 65 -270 12 -47 23 -93 25 -102 2 -10 16 -62 30
-115 15 -54 28 -105 30 -113 20 -101 211 -713 335 -1075 160 -466 462 -1224
645 -1620 13 -27 35 -77 50 -110 15 -33 50 -109 77 -168 51 -109 52 -121 32
-192 -27 -95 -83 -409 -100 -560 -3 -33 -8 -73 -10 -90 -21 -169 -20 -655 1
-835 2 -19 7 -62 10 -95 5 -57 12 -110 20 -165 2 -14 6 -45 10 -70 23 -159 73
-391 140 -650 37 -141 161 -505 220 -645 7 -16 25 -59 40 -95 218 -516 495
-1013 838 -1505 94 -134 127 -179 275 -375 76 -100 338 -426 367 -456 5 -6 35
-40 65 -75 57 -66 220 -246 325 -359 230 -248 716 -716 949 -915 32 -27 68
-59 80 -70 44 -42 371 -306 472 -382 229 -172 311 -230 494 -355 160 -108 405
-261 545 -340 44 -25 103 -58 130 -73 196 -110 582 -293 790 -375 11 -4 36
-15 55 -23 100 -43 459 -163 605 -203 134 -36 282 -72 319 -78 21 -4 41 -8 45
-10 3 -2 24 -7 46 -10 22 -3 51 -8 65 -11 54 -11 77 -15 135 -25 33 -5 80 -12
105 -15 25 -3 52 -8 60 -10 8 -2 50 -6 92 -10 43 -4 90 -8 105 -10 166 -21
721 -22 828 -1 11 2 56 7 100 11 44 4 82 8 85 10 3 1 31 6 63 9 32 4 92 13
135 21 73 13 92 17 152 30 14 3 34 7 45 9 11 2 49 12 84 21 35 9 74 14 86 11
12 -3 79 -33 149 -66 69 -33 128 -60 130 -60 2 0 43 -18 90 -40 47 -22 88 -40
90 -40 3 0 33 -13 68 -29 35 -17 128 -57 208 -91 80 -34 159 -67 175 -74 17
-7 62 -26 100 -41 39 -15 88 -35 110 -45 22 -9 135 -53 250 -98 798 -307 1581
-552 2240 -702 28 -7 57 -13 65 -15 263 -61 666 -138 830 -160 25 -3 68 -10
95 -15 28 -5 73 -12 100 -15 28 -3 64 -8 80 -10 51 -7 138 -17 258 -30 23 -2
76 -7 117 -10 41 -4 91 -8 110 -11 230 -26 1027 -26 1245 0 17 2 62 7 100 10
39 4 81 8 95 11 14 2 48 6 75 9 28 4 61 8 75 11 14 2 41 7 60 9 19 3 45 8 56
10 12 2 39 7 60 10 37 6 59 10 114 22 14 3 36 7 50 10 14 3 41 9 60 14 19 5
49 11 65 14 17 3 46 11 65 16 19 6 45 13 57 16 13 2 80 22 150 44 71 22 135
42 143 45 23 6 181 65 218 81 17 8 47 21 66 29 19 8 37 15 41 15 8 0 309 151
355 178 19 11 51 29 71 40 35 20 216 139 269 177 212 154 467 392 610 570 36
44 67 82 70 85 53 53 310 442 310 470 0 14 15 17 163 35 23 3 53 8 67 10 14 3
43 7 65 10 22 2 51 7 65 10 14 2 39 7 55 10 27 4 147 26 230 40 17 3 37 8 45
10 8 2 30 7 47 10 18 3 61 12 95 20 35 8 74 16 88 18 36 7 351 87 380 97 14 5
76 23 139 40 142 40 474 152 646 218 708 275 1352 648 1890 1097 363 303 583
540 732 790 49 81 143 278 143 298 0 7 4 17 9 23 10 10 76 223 84 270 3 16 10
49 15 74 6 25 13 69 17 98 3 29 9 62 14 75 5 12 73 83 152 157 420 398 897
874 1179 1180 58 62 116 125 130 139 24 25 161 178 205 230 11 13 32 37 47 53
15 16 42 47 60 69 18 23 43 53 56 67 155 178 436 547 559 732 136 206 333 566
333 609 0 10 4 21 9 27 14 14 69 198 85 284 9 47 14 123 12 205 -4 180 -37
274 -160 455 -197 289 -529 561 -911 745 -133 64 -222 105 -228 105 -3 0 -21
7 -41 15 -20 8 -38 15 -41 15 -3 0 -18 6 -33 14 -83 42 -579 191 -732 220 -14
2 -90 18 -170 34 -123 26 -345 64 -443 77 -15 2 -64 9 -110 15 -45 6 -95 12
-112 15 -194 27 -659 61 -965 71 -160 5 -690 5 -835 -1 -193 -6 -386 -15 -445
-20 -30 -2 -93 -7 -140 -10 -129 -9 -195 -14 -248 -19 -26 -3 -81 -8 -122 -12
-41 -3 -83 -8 -93 -10 -10 -1 -49 -6 -87 -9 l-70 -6 -97 78 c-413 332 -820
594 -1128 726 -142 61 -361 127 -470 144 -16 2 -36 6 -44 9 -8 2 -37 7 -65 10
-28 3 -57 7 -65 10 -33 11 -199 19 -401 19 -263 0 -388 -9 -612 -45 -119 -18
-118 -18 -148 40 -7 14 -25 41 -40 60 -15 19 -72 96 -127 170 -282 381 -674
789 -984 1025 -505 386 -904 602 -1453 789 l-149 51 -47 130 c-201 555 -481
1015 -849 1399 -289 301 -688 588 -1056 761 -178 84 -217 100 -390 165 l-180
68 -50 149 c-55 162 -110 303 -156 401 -16 35 -29 65 -29 68 0 6 -98 202 -142
284 -78 145 -187 319 -314 502 -189 271 -515 629 -815 893 -126 112 -384 313
-504 395 -27 18 -52 36 -55 39 -3 3 -24 19 -48 35 -28 19 -41 34 -38 45 3 9 7
32 10 51 4 19 8 49 11 65 9 56 26 200 33 285 14 175 6 648 -13 703 -2 7 -6 32
-9 57 -21 208 -113 495 -239 745 -45 90 -221 393 -236 405 -3 3 -10 13 -16 22
-46 80 -204 296 -375 511 l-101 129 7 76 c3 42 8 84 9 92 2 8 6 49 10 90 4 41
8 91 10 111 6 55 14 165 20 244 2 39 7 102 9 140 29 402 35 1106 12 1515 -13
228 -17 286 -21 320 -2 19 -7 73 -10 120 -4 47 -8 96 -10 110 -2 14 -6 54 -10
90 -4 36 -8 76 -10 90 -2 14 -9 68 -15 120 -6 52 -15 118 -20 145 -5 28 -12
70 -15 95 -3 25 -8 52 -10 60 -2 8 -6 31 -9 51 -5 33 -53 281 -62 324 -3 11
-7 31 -10 45 -9 47 -84 330 -105 397 -87 279 -145 429 -260 668 -247 515 -666
951 -1019 1060 -72 22 -289 28 -385 10z"/>
</g>
</svg>
